<?xml version="1.0" encoding="UTF-8"?>
<svg xmlns="http://www.w3.org/2000/svg" xmlns:xlink="http://www.w3.org/1999/xlink" width="354px" height="66px" viewBox="0 0 351 66" version="1.1">
<g id="surface1">
<path style="fill-rule:nonzero;fill:rgb(100%,100%,100%);fill-opacity:1;stroke-width:1.42;stroke-linecap:butt;stroke-linejoin:miter;stroke:rgb(13.725491%,12.156863%,12.54902%);stroke-opacity:1;stroke-miterlimit:10;" d="M 657.521778 378.845001 L 699.262068 337.078667 C 776.189872 260.140682 776.189872 135.38002 699.262068 58.442036 C 622.289382 -18.540811 497.562213 -18.540811 420.589528 58.442036 L 378.849237 100.163508 L 337.108947 58.442036 C 260.136261 -18.540811 135.36421 -18.540811 58.436406 58.442036 C -18.536279 135.38002 -18.536279 260.140682 58.436406 337.078667 L 100.176697 378.845001 L 58.436406 420.611336 C -18.536279 497.54932 -18.536279 622.309982 58.436406 699.247967 C 135.36421 776.230813 260.136261 776.230813 337.108947 699.247967 L 378.849237 657.526494 L 420.589528 699.247967 C 497.562213 776.230813 622.289382 776.230813 699.262068 699.247967 C 776.189872 622.309982 776.189872 497.54932 699.262068 420.611336 Z M 657.521778 378.845001 " transform="matrix(0.0870337,0,0,0.087073,0.000000000000019789,0.012841)"/>
<path style=" stroke:none;fill-rule:nonzero;fill:rgb(0%,46.27451%,36.862746%);fill-opacity:1;" d="M 38.890625 50.398438 C 39.28125 50.011719 39.597656 49.695312 39.792969 49.503906 C 37.824219 47.953125 35.34375 45.640625 33.074219 42.378906 C 31.652344 40.335938 30.632812 38.375 29.894531 36.6875 C 30.292969 36.59375 30.691406 36.5 31.089844 36.410156 C 30.609375 35.925781 30.070312 35.3125 29.546875 34.566406 C 28.996094 33.785156 28.585938 33.039062 28.289062 32.398438 C 28.125 32.175781 27.960938 31.949219 27.796875 31.726562 C 27.785156 31.445312 27.773438 31.160156 27.761719 30.878906 C 27.785156 32.566406 27.753906 33.917969 27.726562 34.757812 C 27.613281 38.300781 27.699219 41.851562 27.722656 45.394531 C 27.738281 47.367188 28.464844 48.246094 30.382812 48.726562 C 30.761719 48.820312 31.164062 48.816406 31.539062 48.914062 C 32.039062 49.039062 31.933594 49.355469 31.738281 49.703125 L 16.074219 49.703125 C 16.097656 49.40625 15.9375 49.171875 16.234375 48.933594 C 16.375 48.921875 16.566406 48.910156 16.757812 48.886719 C 19.0625 48.589844 20.21875 47.878906 20.195312 45.078125 C 20.128906 38.230469 20.171875 31.382812 20.171875 24.535156 C 20.171875 24.015625 20.171875 23.5 20.171875 22.675781 C 19.484375 23.324219 19.023438 23.742188 18.582031 24.179688 C 14.511719 28.25 10.460938 32.34375 6.367188 36.390625 C 2.003906 40.699219 0.375 45.859375 1.5 51.863281 C 2.839844 59.035156 9.378906 64.605469 16.652344 64.890625 C 21.539062 65.082031 25.75 63.527344 29.230469 60.101562 C 32.03125 57.339844 33.15625 56.113281 38.890625 50.398438 Z M 38.890625 50.398438 "/>
<path style=" stroke:none;fill-rule:nonzero;fill:rgb(0%,46.27451%,36.862746%);fill-opacity:1;" d="M 65.011719 48.324219 C 64.945312 42.023438 61.609375 37.457031 56.859375 33.726562 C 54.726562 35.53125 44.996094 45.441406 44.515625 46.328125 C 46.136719 47.839844 47.722656 49.386719 50.296875 48.628906 C 50.984375 48.425781 51.101562 48.914062 51.089844 49.515625 C 48.8125 50.472656 46.496094 50.992188 44.046875 50.953125 C 43.125 50.9375 42.054688 50.542969 42.050781 50.542969 C 41.4375 50.390625 40.898438 50.175781 40.429688 49.914062 C 40.136719 50.242188 39.757812 50.660156 39.316406 51.136719 C 39.316406 51.136719 38.941406 51.566406 38.507812 51.992188 C 36.871094 53.609375 35.234375 55.222656 33.804688 56.636719 C 34.640625 57.597656 35.511719 58.644531 36.433594 59.644531 C 39.03125 62.457031 42.253906 64.140625 46.019531 64.726562 C 48.253906 65.074219 50.566406 65.167969 52.734375 64.5625 C 57.09375 63.347656 60.285156 60.453125 62.746094 56.753906 C 64.429688 54.21875 65.046875 51.296875 65.011719 48.324219 Z M 65.011719 48.324219 "/>
<path style=" stroke:none;fill-rule:nonzero;fill:rgb(1.960784%,58.823532%,47.450981%);fill-opacity:1;" d="M 44.128906 40.75 C 44.519531 40.378906 45.3125 39.527344 46.253906 38.730469 C 47.4375 37.730469 48.554688 36.636719 49.617188 35.503906 C 51.867188 33.097656 54.441406 31.035156 56.765625 28.710938 C 57.550781 27.925781 58.421875 27.242188 59.113281 26.351562 C 59.886719 25.355469 60.527344 24.308594 61.035156 23.1875 C 61.167969 22.898438 61.550781 22.035156 61.882812 20.839844 C 61.996094 20.425781 62.425781 18.863281 62.476562 17.316406 C 62.574219 14.371094 61.277344 12.070312 60.464844 10.628906 C 59.84375 9.53125 58.761719 7.652344 56.601562 6.050781 C 55.15625 4.980469 53.851562 4.496094 53.441406 4.347656 C 52.710938 4.09375 51.226562 3.652344 49.3125 3.691406 C 48.488281 3.710938 47.921875 3.808594 47.0625 3.960938 C 45.542969 4.222656 43.492188 4.582031 41.488281 5.71875 C 40.84375 6.082031 40.148438 6.671875 38.78125 7.835938 C 36.691406 9.613281 35.597656 10.726562 33.070312 13.089844 C 32.410156 13.707031 31.417969 14.628906 30.179688 15.753906 C 30.472656 15.746094 30.765625 15.742188 31.0625 15.734375 C 32.433594 15.65625 34.4375 15.65625 36.800781 16.066406 C 40.121094 16.648438 43.125 17.167969 45.191406 19.386719 C 48.109375 22.511719 48.734375 28.558594 45.5625 32.703125 C 42.554688 36.636719 37.699219 36.804688 37.007812 36.816406 C 37.40625 37.328125 37.808594 37.875 38.210938 38.46875 C 38.449219 38.820312 38.675781 39.167969 38.886719 39.511719 C 38.886719 39.511719 39.390625 40.242188 40.644531 41.828125 C 40.820312 42.054688 41.671875 43.25 41.679688 43.265625 C 41.683594 43.265625 41.683594 43.261719 41.6875 43.261719 C 41.65625 43.222656 41.628906 43.179688 41.601562 43.140625 C 42.183594 42.59375 43.058594 41.765625 44.128906 40.75 Z M 57.921875 11.441406 C 62.664062 17.027344 58.539062 26.164062 53.796875 27.167969 C 58.800781 22.941406 60.191406 17.710938 57.921875 11.441406 Z M 57.921875 11.441406 "/>
<path style=" stroke:none;fill-rule:nonzero;fill:rgb(1.960784%,58.823532%,47.450981%);fill-opacity:1;" d="M 29.808594 10.886719 C 29.535156 10.507812 29.332031 10.234375 29.328125 10.230469 C 29.148438 9.988281 28.105469 9 26.8125 7.792969 C 24.808594 5.917969 22.394531 4.984375 19.707031 4.488281 C 16.257812 3.851562 13.117188 4.558594 10.179688 6.289062 C 9.894531 6.453125 8.816406 7.140625 7.636719 8.304688 C 7.023438 8.910156 6.175781 9.757812 5.4375 11.085938 C 5.277344 11.375 4.777344 12.304688 4.394531 13.738281 C 4.027344 15.125 3.378906 18.835938 4.679688 23.066406 C 5.332031 25.199219 6.625 26.738281 8.214844 28.148438 C 8.214844 28.148438 10.15625 29.980469 10.34375 30.117188 C 10.621094 30.316406 10.824219 30.503906 10.953125 30.628906 C 11.070312 30.511719 11.191406 30.394531 11.308594 30.273438 C 11.570312 30.019531 12.046875 29.558594 12.652344 28.992188 C 14.421875 27.339844 16.890625 24.785156 19.304688 22.367188 C 21.058594 20.605469 20.382812 17.734375 18.011719 16.953125 C 17.378906 16.746094 16.710938 16.632812 16.082031 16.484375 C 15.960938 15.667969 16.5 15.792969 16.921875 15.792969 C 19.375 15.777344 21.832031 15.707031 24.28125 15.789062 C 25.417969 15.828125 26.230469 15.484375 26.96875 14.652344 C 27.90625 13.597656 28.929688 12.613281 29.917969 11.601562 C 30.105469 11.429688 30.292969 11.253906 30.484375 11.085938 C 30.363281 11.175781 30.246094 11.257812 30.136719 11.335938 C 30.070312 11.242188 29.953125 11.085938 29.808594 10.886719 Z M 10.234375 26.976562 C 8.480469 25.816406 7.652344 24.273438 7.160156 23.285156 C 6.226562 21.40625 5.789062 19.539062 5.855469 17.6875 C 5.855469 17.6875 5.941406 14.355469 7.621094 12.066406 C 7.875 11.71875 8.167969 11.453125 8.167969 11.453125 C 8.359375 11.28125 8.53125 11.160156 8.644531 11.085938 C 8.265625 12.0625 7.914062 12.902344 7.613281 13.757812 C 7.347656 14.527344 7.109375 15.433594 6.992188 16.640625 C 6.820312 18.453125 7.09375 19.882812 7.226562 20.484375 C 7.371094 21.128906 7.664062 22.378906 8.492188 23.761719 C 9.117188 24.808594 9.855469 25.597656 11.1875 27.03125 C 11.511719 27.378906 11.785156 27.660156 11.964844 27.84375 C 11.523438 27.683594 10.902344 27.421875 10.234375 26.976562 Z M 10.234375 26.976562 "/>
<path style=" stroke:none;fill-rule:nonzero;fill:rgb(0%,46.27451%,36.862746%);fill-opacity:1;" d="M 27.386719 15.421875 C 27.234375 15.578125 27.113281 15.707031 27.035156 15.789062 C 27.757812 15.785156 28.492188 15.78125 29.226562 15.769531 C 29.546875 15.765625 29.863281 15.761719 30.179688 15.753906 C 31.414062 14.632812 32.410156 13.707031 33.070312 13.089844 C 35.597656 10.726562 36.691406 9.613281 38.78125 7.839844 C 40.148438 6.675781 40.84375 6.085938 41.488281 5.71875 C 43.492188 4.585938 45.542969 4.226562 47.0625 3.960938 C 47.921875 3.8125 48.488281 3.710938 49.3125 3.695312 C 51.226562 3.652344 52.710938 4.09375 53.441406 4.351562 C 53.851562 4.496094 55.15625 4.980469 56.601562 6.054688 C 58.761719 7.65625 59.847656 9.53125 60.464844 10.632812 C 61.273438 12.070312 62.574219 14.371094 62.476562 17.320312 C 62.425781 18.863281 61.996094 20.429688 61.882812 20.84375 C 61.550781 22.035156 61.167969 22.902344 61.035156 23.191406 C 60.527344 24.308594 59.886719 25.355469 59.113281 26.351562 C 58.421875 27.242188 57.546875 27.925781 56.765625 28.710938 C 54.441406 31.039062 51.867188 33.101562 49.617188 35.503906 C 48.554688 36.636719 47.4375 37.730469 46.253906 38.734375 C 45.3125 39.527344 44.519531 40.382812 44.128906 40.753906 C 43.058594 41.769531 42.183594 42.597656 41.601562 43.144531 C 41.628906 43.183594 41.65625 43.222656 41.6875 43.265625 C 41.890625 43.5625 42.125 43.878906 42.40625 44.203125 C 42.859375 44.730469 43.3125 45.15625 43.722656 45.496094 C 44.875 44.386719 45.976562 43.34375 47.050781 42.277344 C 51.40625 37.945312 55.757812 33.609375 60.105469 29.269531 C 67.097656 22.285156 66.347656 11.046875 59.304688 5.019531 C 52.9375 -0.429688 43.328125 -0.324219 37.277344 5.511719 C 34.09375 8.585938 31 11.753906 27.875 14.890625 C 27.855469 14.914062 27.660156 15.132812 27.386719 15.421875 Z M 27.386719 15.421875 "/>
<path style=" stroke:none;fill-rule:nonzero;fill:rgb(1.960784%,58.823532%,47.450981%);fill-opacity:1;" d="M 28.285156 32.398438 C 28.585938 33.039062 28.992188 33.785156 29.546875 34.570312 C 30.070312 35.316406 30.605469 35.925781 31.089844 36.410156 C 32.214844 36.230469 33.253906 35.773438 34.261719 35.289062 C 37.277344 33.839844 39.609375 31.648438 40.1875 28.253906 C 40.757812 24.894531 40.226562 21.789062 37.335938 19.351562 C 35.164062 17.515625 32.8125 16.890625 30.125 17.308594 C 28.707031 17.527344 27.757812 18.578125 27.746094 19.921875 C 27.722656 23.574219 27.625 27.226562 27.761719 30.875 C 27.769531 31.160156 27.78125 31.441406 27.796875 31.726562 C 27.960938 31.949219 28.121094 32.171875 28.285156 32.398438 Z M 28.285156 32.398438 "/>
<path style=" stroke:none;fill-rule:nonzero;fill:rgb(0%,46.27451%,36.862746%);fill-opacity:1;" d="M 9.207031 32.335938 C 9.546875 32.058594 9.90625 31.742188 10.273438 31.371094 C 10.523438 31.121094 10.753906 30.871094 10.957031 30.632812 C 10.957031 30.632812 10.953125 30.628906 10.953125 30.628906 C 10.824219 30.503906 10.621094 30.316406 10.34375 30.117188 C 10.15625 29.980469 8.214844 28.148438 8.214844 28.148438 C 6.625 26.738281 5.332031 25.199219 4.679688 23.066406 C 3.378906 18.835938 4.027344 15.125 4.394531 13.738281 C 4.777344 12.304688 5.277344 11.375 5.4375 11.085938 C 6.175781 9.757812 7.023438 8.910156 7.636719 8.304688 C 8.816406 7.140625 9.894531 6.453125 10.179688 6.289062 C 13.117188 4.558594 16.257812 3.851562 19.707031 4.488281 C 22.394531 4.984375 24.808594 5.917969 26.8125 7.792969 C 28.105469 9 29.148438 9.988281 29.328125 10.230469 C 29.332031 10.234375 29.535156 10.511719 29.808594 10.886719 C 29.953125 11.082031 30.070312 11.242188 30.136719 11.332031 C 30.246094 11.257812 30.363281 11.171875 30.484375 11.082031 C 30.726562 10.898438 30.980469 10.6875 31.238281 10.4375 C 31.746094 9.953125 32.125 9.46875 32.40625 9.054688 C 31.347656 7.960938 30.363281 6.859375 29.296875 5.855469 C 25.34375 2.136719 20.695312 0.445312 15.257812 1.21875 C 5.421875 2.617188 -0.855469 12.195312 1.679688 21.789062 C 2.863281 26.261719 5.871094 29.34375 9.207031 32.335938 Z M 9.207031 32.335938 "/>
<path style=" stroke:none;fill-rule:nonzero;fill:rgb(99.607843%,99.607843%,99.607843%);fill-opacity:1;" d="M 57.921875 11.441406 C 60.191406 17.710938 58.800781 22.945312 53.796875 27.167969 C 58.539062 26.164062 62.664062 17.027344 57.921875 11.441406 Z M 57.921875 11.441406 "/>
<path style=" stroke:none;fill-rule:nonzero;fill:rgb(99.607843%,99.607843%,99.607843%);fill-opacity:1;" d="M 8.492188 23.761719 C 7.664062 22.378906 7.375 21.128906 7.226562 20.484375 C 7.09375 19.882812 6.820312 18.457031 6.996094 16.640625 C 7.113281 15.433594 7.347656 14.523438 7.617188 13.757812 C 7.914062 12.902344 8.265625 12.0625 8.644531 11.085938 C 8.53125 11.160156 8.359375 11.28125 8.167969 11.453125 C 8.167969 11.453125 7.875 11.722656 7.621094 12.066406 C 5.941406 14.355469 5.855469 17.6875 5.855469 17.6875 C 5.792969 19.539062 6.226562 21.40625 7.160156 23.285156 C 7.652344 24.273438 8.480469 25.816406 10.234375 26.976562 C 10.90625 27.421875 11.527344 27.683594 11.96875 27.84375 C 11.785156 27.660156 11.515625 27.378906 11.191406 27.03125 C 9.855469 25.597656 9.121094 24.808594 8.492188 23.761719 Z M 8.492188 23.761719 "/>
<path style=" stroke:none;fill-rule:nonzero;fill:rgb(1.960784%,58.823532%,47.450981%);fill-opacity:1;" d="M 321.171875 17.050781 C 322.898438 17.050781 324.558594 17.027344 326.21875 17.058594 C 327.355469 17.078125 327.402344 17.179688 327.152344 18.382812 C 327.101562 18.636719 327.070312 18.894531 327.054688 19.152344 C 327.050781 19.242188 327.125 19.335938 327.203125 19.519531 C 328.25 19.015625 328.722656 17.882812 329.714844 17.304688 C 330.785156 16.679688 331.90625 16.53125 333.054688 16.421875 C 334.203125 16.304688 335.339844 16.527344 336.386719 17.03125 C 337.453125 17.542969 338.125 18.46875 338.671875 19.550781 C 339.375 19.203125 339.667969 18.558594 340.148438 18.121094 C 342.703125 15.796875 347.039062 15.808594 349.355469 18.164062 C 350.230469 19.058594 350.679688 20.105469 350.8125 21.34375 C 351.066406 23.730469 350.984375 26.121094 350.992188 28.511719 C 351 30.640625 350.996094 32.769531 350.996094 35.101562 C 348.914062 35.082031 346.929688 35.25 344.980469 35.074219 C 344.648438 34.5625 344.789062 34.082031 344.777344 33.628906 C 344.714844 30.304688 344.863281 26.972656 344.605469 23.648438 C 344.5 22.316406 343.703125 21.3125 342.554688 21.105469 C 341.289062 20.875 340.230469 21.402344 339.65625 22.679688 C 339.097656 23.925781 338.917969 25.285156 338.894531 26.628906 C 338.851562 29.019531 338.589844 31.40625 338.808594 33.796875 C 338.84375 34.148438 338.9375 34.523438 338.554688 35.089844 C 336.777344 35.089844 334.84375 35.214844 332.722656 35.085938 C 332.722656 33.476562 332.722656 31.980469 332.722656 30.480469 C 332.71875 28.296875 332.734375 26.109375 332.707031 23.925781 C 332.683594 22.234375 331.808594 21.183594 330.464844 21.078125 C 328.992188 20.957031 327.753906 21.816406 327.382812 23.722656 C 327.226562 24.53125 327.296875 25.382812 327.28125 26.214844 C 327.265625 27.152344 327.285156 28.089844 327.253906 29.027344 C 327.191406 30.996094 327.105469 32.960938 327.027344 35.039062 L 321.296875 35.039062 C 321.050781 33.996094 320.902344 18.210938 321.171875 17.050781 Z M 321.171875 17.050781 "/>
<path style=" stroke:none;fill-rule:nonzero;fill:rgb(1.960784%,58.823532%,47.450981%);fill-opacity:1;" d="M 118.828125 17.179688 C 120.949219 16.988281 122.945312 17.09375 124.800781 17.101562 C 125.433594 17.980469 124.765625 18.792969 125.246094 19.761719 C 126.734375 17.820312 128.375 16.34375 130.875 16.386719 C 133.292969 16.429688 135.417969 16.96875 136.589844 19.480469 C 137.15625 18.941406 137.667969 18.4375 138.199219 17.953125 C 140.621094 15.738281 144.667969 16.109375 146.621094 17.503906 C 148.242188 18.660156 148.820312 20.347656 148.84375 22.25 C 148.875 25.316406 148.851562 28.382812 148.851562 31.449219 C 148.851562 32.59375 148.851562 33.734375 148.851562 35 L 142.808594 35 C 142.519531 34.558594 142.6875 34.027344 142.683594 33.527344 C 142.652344 30.667969 142.648438 27.808594 142.628906 24.949219 C 142.625 24.484375 142.636719 24.007812 142.5625 23.550781 C 142.328125 22.066406 141.421875 21.15625 140.171875 21.097656 C 138.886719 21.035156 137.449219 22.050781 137.214844 23.386719 C 137.023438 24.453125 136.769531 25.515625 136.785156 26.621094 C 136.820312 29.375 136.796875 32.128906 136.796875 35.011719 L 130.96875 35.011719 C 130.636719 34.535156 130.804688 33.945312 130.796875 33.394531 C 130.769531 30.691406 130.777344 27.988281 130.757812 25.285156 C 130.753906 24.558594 130.710938 23.832031 130.535156 23.121094 C 130.28125 22.082031 129.710938 21.257812 128.636719 21.105469 C 127.507812 20.945312 126.480469 21.3125 125.808594 22.34375 C 125.371094 23.011719 125.164062 23.734375 125.164062 24.546875 C 125.160156 27.457031 125.136719 30.367188 125.09375 33.28125 C 125.085938 33.835938 125.230469 34.425781 124.835938 35.03125 L 118.957031 35.03125 C 118.761719 29.15625 119.019531 23.257812 118.828125 17.179688 Z M 118.828125 17.179688 "/>
<path style=" stroke:none;fill-rule:nonzero;fill:rgb(1.960784%,58.823532%,47.450981%);fill-opacity:1;" d="M 259.628906 35.101562 C 257.523438 35.140625 255.566406 35.222656 253.628906 35.085938 C 253.328125 34.585938 253.453125 34.113281 253.449219 33.660156 C 253.425781 30.488281 253.410156 27.3125 253.40625 24.140625 C 253.40625 23.449219 253.351562 22.777344 252.917969 22.21875 C 252.265625 21.382812 251.425781 20.917969 250.335938 21.128906 C 249.285156 21.332031 248.230469 22.390625 248.109375 23.460938 C 247.734375 26.765625 247.421875 30.074219 247.667969 33.40625 C 247.707031 33.917969 247.800781 34.429688 247.636719 35.039062 C 245.652344 35.226562 243.65625 35.152344 241.589844 35.148438 C 241.589844 33.191406 241.59375 31.390625 241.589844 29.585938 C 241.585938 28.027344 241.578125 26.464844 241.570312 24.90625 C 241.570312 24.695312 241.558594 24.488281 241.550781 24.28125 C 241.453125 22.355469 240.578125 21.148438 239.242188 21.089844 C 237.628906 21.023438 236.128906 22.589844 235.917969 24.375 C 235.550781 27.429688 235.648438 30.488281 235.660156 33.546875 C 235.660156 34.007812 235.75 34.476562 235.507812 35.085938 C 233.679688 35.152344 231.796875 35.195312 229.808594 35.085938 L 229.808594 17.160156 L 235.773438 17.160156 C 236.214844 17.929688 235.613281 18.679688 235.976562 19.378906 C 236.511719 19.351562 236.734375 18.90625 237.019531 18.5625 C 239.144531 15.976562 243.234375 15.785156 245.828125 17.445312 C 246.605469 17.941406 246.945312 18.785156 247.632812 19.503906 C 248.808594 17.839844 250.328125 16.765625 252.316406 16.511719 C 255.402344 16.121094 257.777344 16.972656 259.101562 19.464844 C 259.398438 20.023438 259.625 20.597656 259.625 21.238281 C 259.632812 25.804688 259.628906 30.375 259.628906 35.101562 Z M 259.628906 35.101562 "/>
<path style=" stroke:none;fill-rule:nonzero;fill:rgb(1.960784%,58.823532%,47.450981%);fill-opacity:1;" d="M 270.804688 19.234375 L 279.191406 19.234375 L 279.191406 24.789062 L 270.886719 24.789062 L 270.886719 35.046875 L 263.851562 35.046875 L 263.851562 8.914062 L 279.828125 8.914062 L 279.828125 14.648438 C 276.8125 14.921875 273.871094 14.328125 270.820312 14.839844 C 270.605469 16.269531 270.636719 17.679688 270.804688 19.234375 Z M 270.804688 19.234375 "/>
<path style=" stroke:none;fill-rule:nonzero;fill:rgb(1.960784%,58.823532%,47.450981%);fill-opacity:1;" d="M 207.707031 17.066406 L 213.300781 17.066406 C 213.660156 17.445312 213.484375 17.878906 213.484375 18.269531 C 213.503906 21.386719 213.484375 24.507812 213.511719 27.625 C 213.523438 29.402344 214.550781 30.648438 216.167969 30.960938 C 217.863281 31.285156 219.289062 30.359375 219.625 28.660156 C 219.734375 28.105469 219.722656 27.523438 219.722656 26.953125 C 219.730469 23.730469 219.726562 20.511719 219.726562 17.175781 L 226.035156 17.175781 C 226.035156 18.664062 226.042969 20.105469 226.035156 21.550781 C 226.015625 24.296875 226.128906 27.050781 225.683594 29.78125 C 225.289062 32.210938 224.070312 34.011719 221.722656 34.917969 C 218.882812 36.011719 215.953125 36.058594 213.035156 35.414062 C 209.683594 34.675781 207.535156 31.890625 207.507812 28.429688 C 207.480469 25.050781 207.496094 21.671875 207.503906 18.292969 C 207.503906 17.9375 207.441406 17.570312 207.707031 17.066406 Z M 207.707031 17.066406 "/>
<path style=" stroke:none;fill-rule:nonzero;fill:rgb(1.960784%,58.823532%,47.450981%);fill-opacity:1;" d="M 305.636719 17.117188 L 311.390625 17.117188 C 311.722656 18.226562 311.1875 19.324219 311.574219 20.621094 C 312.734375 19.472656 313.332031 17.988281 314.742188 17.257812 C 316.210938 16.5 317.753906 16.707031 319.28125 16.597656 C 319.464844 17.625 319.148438 21.074219 318.769531 22.214844 C 318.21875 22.410156 317.648438 22.292969 317.101562 22.171875 C 315.261719 21.75 313.980469 22.652344 312.972656 23.996094 C 312.21875 25 311.796875 26.164062 311.816406 27.472656 C 311.851562 29.960938 311.824219 32.453125 311.824219 35.058594 L 305.636719 35.058594 L 305.636719 17.113281 Z M 305.636719 17.117188 "/>
<path style=" stroke:none;fill-rule:nonzero;fill:rgb(1.960784%,58.823532%,47.450981%);fill-opacity:1;" d="M 203.699219 35.101562 L 197.382812 35.101562 L 197.382812 17.183594 C 199.445312 16.980469 201.53125 17.089844 203.699219 17.105469 Z M 203.699219 35.101562 "/>
<path style=" stroke:none;fill-rule:nonzero;fill:rgb(40.392157%,39.607844%,40.392157%);fill-opacity:1;" d="M 347.9375 52.527344 C 343.050781 52.53125 337.972656 52.535156 333.089844 52.535156 C 328.199219 52.535156 323.121094 52.53125 318.226562 52.527344 L 318.226562 50.621094 C 323.164062 50.609375 328.101562 50.601562 333.039062 50.601562 C 338.003906 50.601562 342.96875 50.609375 347.9375 50.621094 Z M 347.9375 52.527344 "/>
<path style=" stroke:none;fill-rule:nonzero;fill:rgb(39.607844%,39.215687%,39.607844%);fill-opacity:1;" d="M 222.253906 58.210938 C 221.878906 58.207031 221.503906 58.207031 221.125 58.207031 C 220.789062 58.207031 220.457031 58.207031 220.125 58.210938 L 220.125 47.355469 L 222.1875 47.355469 C 222.210938 47.664062 222.234375 47.976562 222.253906 48.285156 C 222.753906 47.871094 223.699219 47.210938 225.03125 47.035156 C 225.300781 46.996094 225.675781 46.96875 226.097656 47.015625 C 227.636719 47.183594 228.996094 48.382812 229.058594 49.925781 C 229.125 51.5625 229.121094 52.195312 229.089844 56.625 C 229.085938 57.292969 229.09375 57.84375 229.101562 58.210938 C 228.953125 58.207031 228.738281 58.199219 228.476562 58.195312 C 228.183594 58.191406 228.03125 58.1875 227.941406 58.183594 C 227.71875 58.183594 227.40625 58.1875 227.015625 58.210938 L 227.015625 50.746094 C 227 50.519531 226.933594 50.152344 226.6875 49.789062 C 226.308594 49.230469 225.746094 49.046875 225.527344 48.972656 C 225.292969 48.886719 225.058594 48.855469 224.835938 48.859375 C 224.085938 48.882812 223.5625 49.382812 223.28125 49.652344 C 222.585938 50.316406 222.347656 51.109375 222.257812 51.507812 C 222.257812 51.8125 222.257812 52.117188 222.257812 52.421875 L 222.257812 58.207031 Z M 222.253906 58.210938 "/>
<path style=" stroke:none;fill-rule:nonzero;fill:rgb(38.431373%,38.039216%,38.82353%);fill-opacity:1;" d="M 169.914062 50.21875 C 169.746094 50.0625 168.234375 48.71875 166.328125 49.15625 C 166.011719 49.230469 165.292969 49.453125 164.648438 50.078125 C 163.25 51.441406 163.074219 53.542969 164.234375 55.015625 C 164.441406 55.277344 165 56.023438 166.042969 56.347656 C 168.089844 56.984375 169.832031 55.378906 169.914062 55.300781 L 169.914062 56.070312 C 169.914062 56.304688 169.914062 56.542969 169.914062 56.785156 C 169.910156 57.042969 169.90625 57.296875 169.902344 57.546875 C 169.714844 57.757812 169.402344 58.058594 168.941406 58.273438 C 168.398438 58.527344 167.921875 58.535156 167.304688 58.542969 C 166.523438 58.550781 165.867188 58.433594 165.554688 58.355469 C 164.058594 57.96875 161.421875 56.058594 161.308594 53.011719 C 161.242188 51.195312 162.09375 49.441406 163.402344 48.414062 C 164.398438 47.628906 165.492188 47.386719 165.902344 47.304688 C 166.28125 47.226562 167.179688 47.074219 168.3125 47.257812 C 168.988281 47.371094 169.53125 47.566406 169.914062 47.734375 Z M 169.914062 50.21875 "/>
<path style=" stroke:none;fill-rule:nonzero;fill:rgb(40.000001%,39.607844%,40.000001%);fill-opacity:1;" d="M 205.691406 49.230469 L 204.328125 49.828125 C 204.265625 49.660156 204.105469 49.304688 203.730469 49.035156 C 203.605469 48.945312 203.160156 48.625 202.597656 48.742188 C 202.5 48.765625 202.09375 48.847656 201.839844 49.230469 C 201.574219 49.628906 201.675781 50.0625 201.695312 50.15625 C 201.78125 50.519531 202.003906 50.738281 202.167969 50.894531 C 202.535156 51.246094 202.90625 51.371094 203.335938 51.53125 C 204.265625 51.878906 204.730469 52.050781 204.984375 52.21875 C 205.984375 52.875 206.261719 54.085938 206.328125 54.367188 C 206.402344 54.699219 206.597656 55.550781 206.222656 56.464844 C 205.71875 57.703125 204.417969 58.460938 203.203125 58.546875 C 201.632812 58.65625 200.082031 57.648438 199.386719 56.027344 C 199.824219 55.742188 200.261719 55.460938 200.695312 55.175781 C 201.136719 56.234375 202.144531 56.828125 203.046875 56.660156 C 203.703125 56.539062 204.578125 55.96875 204.546875 55.09375 C 204.523438 54.40625 203.941406 53.765625 203.128906 53.621094 C 202.667969 53.496094 201.882812 53.21875 201.132812 52.5625 C 200.625 52.117188 199.871094 51.457031 199.742188 50.367188 C 199.589844 49.054688 200.46875 48.109375 200.53125 48.03125 C 201.617188 46.722656 203.675781 46.621094 204.980469 47.820312 C 205.375 48.183594 205.566406 48.570312 205.566406 48.570312 C 205.671875 48.839844 205.691406 49.082031 205.6875 49.230469 Z M 205.691406 49.230469 "/>
<path style=" stroke:none;fill-rule:nonzero;fill:rgb(40.392157%,40.392157%,40.784314%);fill-opacity:1;" d="M 298.941406 39.453125 C 299.59375 39.457031 300.242188 39.460938 300.894531 39.464844 C 300.90625 40.636719 300.917969 42.429688 300.917969 44.625 C 300.921875 46.792969 300.910156 47.898438 300.910156 50.09375 C 300.90625 51.636719 300.90625 53.875 300.917969 56.625 L 300.917969 58.207031 C 300.628906 58.207031 300.335938 58.210938 300.042969 58.210938 C 299.671875 58.210938 299.304688 58.210938 298.9375 58.210938 C 298.9375 56.046875 298.941406 51.214844 298.941406 49.050781 C 298.941406 46.710938 298.941406 41.796875 298.941406 39.453125 Z M 298.941406 39.453125 "/>
<path style=" stroke:none;fill-rule:nonzero;fill:rgb(1.960784%,58.823532%,47.450981%);fill-opacity:1;" d="M 200.488281 14.871094 C 198.425781 14.890625 196.964844 13.488281 196.9375 11.457031 C 196.90625 9.304688 198.222656 7.976562 200.394531 7.960938 C 202.480469 7.949219 203.847656 9.167969 203.875 11.070312 C 203.914062 13.59375 202.792969 14.851562 200.488281 14.871094 Z M 200.488281 14.871094 "/>
<path style=" stroke:none;fill-rule:nonzero;fill:rgb(41.960785%,41.176471%,41.568628%);fill-opacity:1;" d="M 183.796875 43.3125 C 184.1875 43.308594 184.582031 43.300781 184.972656 43.296875 C 185.34375 43.289062 185.71875 43.277344 186.09375 43.269531 L 186.09375 47.351562 L 188.109375 47.351562 C 188.117188 47.628906 188.121094 47.914062 188.121094 48.203125 C 188.121094 48.554688 188.117188 48.902344 188.109375 49.238281 C 187.796875 49.234375 187.480469 49.230469 187.164062 49.230469 C 186.804688 49.226562 186.445312 49.226562 186.09375 49.230469 C 186.089844 52.222656 186.085938 55.214844 186.082031 58.207031 L 183.796875 58.207031 L 183.796875 49.230469 L 183.109375 49.230469 C 183.101562 48.601562 183.097656 47.976562 183.089844 47.351562 L 183.796875 47.351562 Z M 183.796875 43.3125 "/>
<path style=" stroke:none;fill-rule:nonzero;fill:rgb(40.000001%,39.215687%,40.000001%);fill-opacity:1;" d="M 157.433594 47.371094 C 157.765625 47.363281 158.101562 47.355469 158.4375 47.347656 C 158.773438 47.351562 159.109375 47.351562 159.445312 47.355469 C 159.460938 50.972656 159.480469 54.589844 159.496094 58.210938 L 157.417969 58.210938 C 157.421875 54.597656 157.425781 50.984375 157.433594 47.371094 Z M 157.433594 47.371094 "/>
<path style=" stroke:none;fill-rule:nonzero;fill:rgb(40.392157%,40.392157%,40.392157%);fill-opacity:1;" d="M 191.207031 58.210938 L 189.234375 58.210938 C 189.238281 54.601562 189.238281 50.992188 189.242188 47.378906 C 189.546875 47.375 189.851562 47.371094 190.15625 47.367188 C 190.507812 47.359375 190.855469 47.347656 191.207031 47.339844 L 191.207031 52.214844 C 191.207031 54.214844 191.207031 56.210938 191.207031 58.210938 Z M 191.207031 58.210938 "/>
<path style=" stroke:none;fill-rule:nonzero;fill:rgb(1.960784%,58.823532%,47.450981%);fill-opacity:1;" d="M 89.046875 24.285156 C 89.5625 24.09375 89.945312 23.945312 90.332031 23.8125 C 92.511719 23.054688 93.902344 21.566406 94.449219 19.320312 C 94.964844 17.210938 94.964844 15.128906 94.082031 13.09375 C 93.046875 10.695312 91.152344 9.28125 88.683594 8.878906 C 84.464844 8.1875 80.1875 8.496094 75.933594 8.539062 C 75.796875 8.542969 75.664062 8.65625 75.546875 8.707031 C 75.242188 11.546875 75.339844 33.308594 75.699219 34.714844 C 77.753906 34.910156 79.851562 34.78125 82.15625 34.707031 L 82.15625 24.914062 C 82.816406 24.882812 82.777344 25.289062 82.914062 25.535156 C 84.421875 28.199219 85.921875 30.863281 87.433594 33.523438 C 87.796875 34.164062 88.203125 34.777344 89.070312 34.777344 C 91.335938 34.777344 93.601562 34.777344 96.054688 34.777344 C 93.816406 31.082031 91.382812 27.769531 89.046875 24.285156 Z M 84.566406 20.945312 C 83.851562 20.984375 83.128906 20.953125 82.183594 20.953125 C 82.085938 18.753906 82.167969 16.558594 82.175781 14.128906 C 83.054688 14.128906 83.765625 14.121094 84.480469 14.132812 C 86.667969 14.167969 87.859375 15.339844 87.894531 17.464844 C 87.925781 19.445312 86.613281 20.835938 84.566406 20.945312 Z M 84.566406 20.945312 "/>
<path style=" stroke:none;fill-rule:nonzero;fill:rgb(1.960784%,58.823532%,47.450981%);fill-opacity:1;" d="M 187.25 7.421875 C 187.25 8.933594 187.25 10.230469 187.25 11.527344 C 187.253906 12.824219 187.285156 14.125 187.25 15.425781 C 187.214844 16.664062 187.425781 17.921875 187.175781 19.339844 C 186.433594 18.757812 186.136719 18.050781 185.511719 17.664062 C 181.839844 15.390625 176.515625 16.054688 174.289062 20.539062 C 172.558594 24.027344 172.464844 27.683594 174.035156 31.222656 C 176.390625 36.519531 182.84375 37.460938 186.671875 33.1875 C 186.867188 32.96875 187.03125 32.652344 187.402344 32.761719 C 187.875 33.496094 187.007812 34.285156 187.554688 35.089844 C 189.375 35.277344 191.222656 35.152344 193.324219 35.121094 L 193.324219 7.390625 C 191.355469 7.386719 189.320312 7.339844 187.25 7.421875 Z M 187.582031 26.171875 C 187.625 29.378906 185.015625 31.371094 181.976562 30.398438 C 180.765625 30.011719 180.109375 29.003906 179.6875 27.828125 C 178.996094 25.90625 179.691406 23.195312 181.191406 22.238281 C 183.730469 20.621094 187.078125 21.832031 187.578125 25.242188 C 187.621094 25.546875 187.582031 25.863281 187.582031 26.175781 Z M 187.582031 26.171875 "/>
<path style=" stroke:none;fill-rule:nonzero;fill:rgb(1.960784%,58.823532%,47.450981%);fill-opacity:1;" d="M 295.648438 17.425781 C 295.566406 17.980469 295.976562 18.523438 295.6875 19.160156 C 294.984375 19.128906 294.742188 18.59375 294.410156 18.234375 C 293.867188 17.644531 293.238281 17.203125 292.511719 16.925781 C 289.179688 15.660156 284.3125 16.488281 282.40625 21.078125 C 280.910156 24.675781 281.089844 28.308594 282.691406 31.792969 C 284.820312 36.410156 291.214844 37.25 294.683594 33.472656 C 294.972656 33.15625 295.164062 32.625 295.761719 32.726562 C 296.050781 33.460938 295.683594 34.269531 295.984375 35.046875 C 297.820312 35.316406 299.597656 35.140625 301.4375 35.121094 L 301.4375 17.207031 C 299.144531 16.882812 296.636719 16.976562 295.648438 17.425781 Z M 290.589844 30.441406 C 289.253906 30.179688 287.839844 28.433594 287.722656 26.890625 C 287.660156 26.066406 287.695312 25.242188 287.957031 24.425781 C 288.570312 22.523438 290.328125 21.183594 292.175781 21.464844 C 294.09375 21.753906 295.59375 22.730469 295.902344 25.214844 C 295.941406 25.523438 295.933594 25.835938 295.960938 26.328125 C 296.164062 28.632812 294.359375 31.183594 290.589844 30.441406 Z M 290.589844 30.441406 "/>
<path style=" stroke:none;fill-rule:nonzero;fill:rgb(1.960784%,58.823532%,47.450981%);fill-opacity:1;" d="M 171.046875 27.367188 C 171.269531 25.726562 171.140625 24.328125 170.683594 22.996094 C 169.824219 20.515625 168.441406 18.390625 165.933594 17.324219 C 163.164062 16.144531 160.296875 15.964844 157.464844 17.128906 C 154.652344 18.285156 151.292969 21.363281 151.609375 25.675781 C 151.660156 26.347656 151.636719 27.027344 151.664062 27.699219 C 151.8125 31.441406 154.769531 34.507812 158.296875 35.421875 C 160.578125 36.015625 162.945312 36.011719 165.25 35.460938 C 167.441406 34.941406 169.210938 33.792969 170.238281 31.570312 C 169.101562 30.875 167.929688 30.484375 166.808594 29.988281 C 165.992188 29.625 165.3125 29.691406 164.714844 30.386719 C 163.992188 31.230469 163 31.53125 161.953125 31.65625 C 159.460938 31.957031 157.457031 30.015625 157.625 27.363281 L 171.046875 27.363281 Z M 160.867188 20.464844 C 163.121094 20.355469 164.238281 21.238281 164.773438 23.757812 L 157.761719 23.757812 C 157.996094 21.746094 159.121094 20.550781 160.867188 20.464844 Z M 160.867188 20.464844 "/>
<path style=" stroke:none;fill-rule:nonzero;fill:rgb(1.960784%,58.823532%,47.450981%);fill-opacity:1;" d="M 116.011719 26.746094 C 115.972656 25.96875 115.957031 25.1875 115.828125 24.421875 C 114.660156 17.53125 109.171875 15.503906 103.878906 16.6875 C 99.519531 17.664062 95.808594 21.472656 96.511719 27.414062 C 96.960938 31.21875 99.351562 34.1875 102.730469 35.175781 C 104.71875 35.753906 106.695312 35.75 108.726562 35.585938 C 111.507812 35.359375 113.644531 34.164062 115.171875 31.6875 C 114.226562 30.785156 112.980469 30.789062 112.023438 30.183594 C 111.148438 29.628906 110.46875 29.757812 109.65625 30.445312 C 106.621094 33.023438 102.917969 31.566406 102.179688 27.367188 L 115.726562 27.367188 C 115.890625 27.023438 116.019531 26.882812 116.011719 26.746094 Z M 102.769531 23.804688 C 102.710938 21.917969 103.6875 20.710938 105.449219 20.453125 C 107.738281 20.121094 109.246094 21.210938 109.839844 23.804688 Z M 102.769531 23.804688 "/>
<path style=" stroke:none;fill-rule:nonzero;fill:rgb(40.392157%,39.607844%,40.000001%);fill-opacity:1;" d="M 128.714844 41.96875 C 127.238281 41.082031 125.777344 40.910156 124.332031 40.734375 C 122.460938 40.511719 120.886719 40.683594 119.820312 40.878906 C 119.820312 41.367188 119.816406 42.363281 119.816406 42.855469 C 119.808594 45.402344 119.796875 47.949219 119.785156 50.496094 C 119.757812 52.699219 119.710938 54.921875 119.644531 57.160156 C 119.636719 57.507812 119.625 57.859375 119.613281 58.210938 C 119.855469 58.207031 120.214844 58.199219 120.648438 58.195312 C 123.652344 58.144531 125.167969 58.097656 125.929688 57.972656 C 127.292969 57.742188 128.453125 57.28125 129.4375 56.597656 C 129.921875 56.261719 131.53125 55.132812 132.390625 52.96875 C 132.496094 52.699219 132.855469 51.746094 132.917969 50.425781 C 133.0625 47.539062 131.75 43.792969 128.714844 41.972656 Z M 130.507812 51.378906 C 129.972656 53.296875 128.542969 55.007812 126.859375 55.671875 C 125.871094 56.0625 124.449219 56.230469 124.023438 56.28125 C 123.230469 56.371094 122.5625 56.386719 122.089844 56.382812 C 122.097656 51.917969 122.101562 47.453125 122.109375 42.992188 C 122.40625 42.910156 125.703125 42.078125 128.371094 44.339844 C 130.449219 46.097656 131.199219 48.929688 130.507812 51.378906 Z M 130.507812 51.378906 "/>
<path style=" stroke:none;fill-rule:nonzero;fill:rgb(40.000001%,39.215687%,39.607844%);fill-opacity:1;" d="M 155.027344 46.695312 L 155.027344 38.273438 C 154.660156 38.277344 154.292969 38.28125 153.925781 38.285156 L 152.894531 38.285156 C 152.902344 41.875 152.90625 45.460938 152.914062 49.050781 C 152.695312 48.808594 152.359375 48.488281 151.894531 48.199219 C 150.515625 47.335938 149.101562 47.433594 148.777344 47.464844 C 146.808594 47.644531 145.171875 49.023438 144.492188 50.601562 C 144.019531 51.699219 144.058594 52.714844 144.085938 53.242188 C 144.117188 53.804688 144.171875 54.78125 144.777344 55.796875 C 145.65625 57.269531 147.085938 57.804688 147.460938 57.933594 C 149.449219 58.609375 151.195312 57.789062 151.710938 57.546875 C 152.054688 57.386719 152.328125 57.21875 152.515625 57.089844 C 152.503906 57.464844 152.488281 57.835938 152.476562 58.210938 L 155.0625 58.210938 C 155.058594 57.621094 155.054688 57.027344 155.054688 56.4375 C 155.050781 54.203125 155.046875 51.972656 155.042969 49.738281 C 155.042969 48.984375 155.042969 48.230469 155.046875 47.472656 C 155.039062 47.214844 155.035156 46.957031 155.027344 46.695312 Z M 150.917969 56.273438 C 149.632812 57.035156 147.964844 56.703125 147.050781 55.5 C 146.472656 54.738281 146.128906 53.789062 146.121094 52.925781 C 146.207031 50.84375 147.195312 49.464844 148.644531 49.082031 C 149.65625 48.8125 150.507812 48.992188 151.269531 49.546875 C 153.503906 51.175781 153.289062 54.863281 150.917969 56.273438 Z M 150.917969 56.273438 "/>
<path style=" stroke:none;fill-rule:nonzero;fill:rgb(40.000001%,39.215687%,39.607844%);fill-opacity:1;" d="M 218.15625 47.355469 L 216.058594 47.355469 L 216.058594 48.863281 C 215.90625 48.652344 215.71875 48.4375 215.496094 48.234375 C 214.371094 47.203125 212.976562 47.046875 212.320312 47.019531 C 210.269531 46.984375 208.0625 48.652344 207.304688 50.855469 C 206.609375 52.882812 207.367188 54.703125 207.566406 55.175781 C 207.769531 55.664062 208.160156 56.570312 209.097656 57.34375 C 209.410156 57.605469 210.480469 58.425781 212.070312 58.496094 C 212.542969 58.515625 213.75 58.550781 214.871094 57.757812 C 215.324219 57.4375 215.621094 57.078125 215.804688 56.828125 C 215.835938 57.066406 215.878906 57.316406 215.925781 57.574219 C 215.964844 57.792969 216.011719 58.003906 216.058594 58.207031 C 216.421875 58.21875 216.792969 58.222656 217.175781 58.222656 C 217.511719 58.222656 217.839844 58.21875 218.160156 58.207031 C 218.160156 56.941406 218.15625 54.007812 218.15625 52.742188 C 218.15625 51.472656 218.15625 48.589844 218.160156 47.351562 Z M 216.003906 52.855469 C 215.992188 54.707031 214.371094 56.648438 212.8125 56.671875 C 210.863281 56.703125 209.175781 54.878906 209.199219 52.761719 C 209.222656 50.734375 210.886719 48.980469 212.769531 48.921875 C 214.125 48.878906 216.339844 50.996094 216.003906 52.855469 Z M 216.003906 52.855469 "/>
<path style=" stroke:none;fill-rule:nonzero;fill:rgb(40.000001%,39.215687%,39.607844%);fill-opacity:1;" d="M 241.457031 47.371094 L 239.355469 47.371094 L 239.355469 48.878906 C 239.203125 48.671875 239.019531 48.457031 238.792969 48.25 C 237.671875 47.222656 236.277344 47.066406 235.621094 47.039062 C 233.570312 47.003906 231.359375 48.667969 230.605469 50.875 C 229.910156 52.902344 230.667969 54.722656 230.863281 55.195312 C 231.070312 55.683594 231.457031 56.585938 232.394531 57.359375 C 232.710938 57.621094 233.78125 58.441406 235.367188 58.511719 C 235.839844 58.53125 237.050781 58.570312 238.171875 57.773438 C 238.621094 57.453125 238.921875 57.097656 239.105469 56.84375 C 239.136719 57.082031 239.175781 57.332031 239.222656 57.589844 C 239.265625 57.808594 239.308594 58.023438 239.359375 58.226562 C 239.71875 58.234375 240.09375 58.242188 240.476562 58.242188 C 240.808594 58.242188 241.136719 58.234375 241.457031 58.226562 C 241.457031 56.960938 241.457031 54.023438 241.457031 52.757812 C 241.457031 51.492188 241.457031 48.605469 241.457031 47.371094 Z M 239.300781 52.871094 C 239.292969 54.722656 237.671875 56.664062 236.113281 56.691406 C 234.164062 56.722656 232.472656 54.894531 232.496094 52.777344 C 232.519531 50.75 234.183594 48.996094 236.070312 48.9375 C 237.421875 48.894531 239.640625 51.011719 239.300781 52.871094 Z M 239.300781 52.871094 "/>
<path style=" stroke:none;fill-rule:nonzero;fill:rgb(39.607844%,38.431373%,39.215687%);fill-opacity:1;" d="M 181.59375 49.386719 C 181.585938 49.058594 181.582031 48.730469 181.574219 48.402344 C 181.574219 48.054688 181.578125 47.703125 181.578125 47.355469 L 179.796875 47.355469 C 179.78125 47.550781 179.765625 47.757812 179.757812 47.972656 C 179.75 48.171875 179.746094 48.359375 179.746094 48.542969 C 179.609375 48.417969 179.472656 48.292969 179.335938 48.167969 C 179.140625 47.996094 178.859375 47.769531 178.484375 47.5625 C 177.292969 46.914062 176.128906 47 175.644531 47.042969 C 175.394531 47.066406 173.828125 47.273438 172.578125 48.300781 C 170.28125 50.191406 169.867188 54.75 172.675781 57.296875 C 173.027344 57.613281 174.125 58.511719 175.6875 58.570312 C 177.046875 58.625 178.128906 58.011719 178.546875 57.777344 C 179.015625 57.511719 179.375 57.226562 179.621094 57.007812 C 179.613281 57.191406 179.605469 57.375 179.597656 57.558594 C 179.601562 57.773438 179.601562 57.992188 179.601562 58.207031 C 180.042969 58.210938 180.492188 58.214844 180.941406 58.210938 C 181.152344 58.210938 181.363281 58.210938 181.574219 58.207031 C 181.570312 57.765625 181.566406 57.320312 181.566406 56.875 C 181.574219 54.378906 181.582031 51.882812 181.59375 49.386719 Z M 178.683594 55.429688 C 177.144531 57.199219 175.113281 57.078125 173.726562 55.195312 C 173.152344 54.410156 172.875 53.558594 172.882812 52.59375 C 172.898438 51.144531 174.195312 49.375 175.574219 48.933594 C 176.085938 48.769531 176.601562 48.78125 177.09375 48.984375 C 179.296875 49.875 180.722656 53.082031 178.683594 55.429688 Z M 178.683594 55.429688 "/>
<path style=" stroke:none;fill-rule:nonzero;fill:rgb(41.960785%,41.176471%,41.568628%);fill-opacity:1;" d="M 260.597656 43.3125 C 260.988281 43.308594 261.378906 43.300781 261.769531 43.296875 C 262.144531 43.289062 262.519531 43.277344 262.890625 43.269531 L 262.890625 47.351562 L 264.90625 47.351562 C 264.914062 47.628906 264.921875 47.914062 264.921875 48.203125 C 264.921875 48.554688 264.917969 48.902344 264.90625 49.238281 C 264.59375 49.234375 264.28125 49.230469 263.960938 49.230469 C 263.601562 49.226562 263.246094 49.226562 262.890625 49.230469 C 262.890625 52.222656 262.882812 55.214844 262.882812 58.207031 L 260.597656 58.207031 L 260.597656 49.230469 L 259.910156 49.230469 C 259.902344 48.601562 259.894531 47.976562 259.886719 47.351562 L 260.597656 47.351562 Z M 260.597656 43.3125 "/>
<path style=" stroke:none;fill-rule:nonzero;fill:rgb(41.960785%,41.176471%,41.568628%);fill-opacity:1;" d="M 243.574219 43.324219 C 243.964844 43.320312 244.359375 43.3125 244.75 43.308594 C 245.121094 43.300781 245.496094 43.289062 245.871094 43.28125 L 245.871094 47.363281 L 247.886719 47.363281 C 247.894531 47.640625 247.898438 47.925781 247.898438 48.214844 C 247.898438 48.566406 247.894531 48.914062 247.886719 49.25 C 247.574219 49.246094 247.257812 49.242188 246.941406 49.242188 C 246.582031 49.238281 246.222656 49.238281 245.871094 49.242188 C 245.867188 52.234375 245.863281 55.226562 245.859375 58.21875 L 243.574219 58.21875 L 243.574219 49.242188 L 242.886719 49.242188 C 242.878906 48.613281 242.875 47.988281 242.867188 47.363281 L 243.574219 47.363281 Z M 243.574219 43.324219 "/>
<path style=" stroke:none;fill-rule:nonzero;fill:rgb(40.392157%,40.392157%,40.392157%);fill-opacity:1;" d="M 267.972656 58.210938 L 266 58.210938 C 266.003906 54.601562 266.003906 50.992188 266.007812 47.378906 C 266.3125 47.375 266.617188 47.371094 266.921875 47.367188 C 267.273438 47.359375 267.621094 47.347656 267.972656 47.339844 L 267.972656 52.214844 C 267.972656 54.214844 267.972656 56.210938 267.972656 58.210938 Z M 267.972656 58.210938 "/>
<path style=" stroke:none;fill-rule:nonzero;fill:rgb(40.392157%,40.392157%,40.392157%);fill-opacity:1;" d="M 272.121094 58.1875 L 270.148438 58.1875 C 270.152344 54.578125 270.15625 50.96875 270.15625 47.359375 C 270.460938 47.355469 270.765625 47.347656 271.070312 47.34375 C 271.421875 47.335938 271.769531 47.328125 272.121094 47.316406 L 272.121094 52.195312 C 272.121094 54.191406 272.121094 56.1875 272.121094 58.1875 Z M 272.121094 58.1875 "/>
<path style=" stroke:none;fill-rule:nonzero;fill:rgb(39.607844%,38.431373%,39.215687%);fill-opacity:1;" d="M 258.394531 49.386719 C 258.386719 49.058594 258.378906 48.730469 258.375 48.402344 C 258.375 48.054688 258.378906 47.703125 258.378906 47.355469 L 256.597656 47.355469 C 256.582031 47.550781 256.566406 47.757812 256.558594 47.972656 C 256.550781 48.171875 256.546875 48.359375 256.546875 48.542969 C 256.410156 48.417969 256.273438 48.292969 256.136719 48.167969 C 255.941406 47.996094 255.660156 47.769531 255.285156 47.5625 C 254.09375 46.914062 252.929688 47 252.441406 47.042969 C 252.195312 47.066406 250.628906 47.273438 249.378906 48.300781 C 247.082031 50.191406 246.667969 54.75 249.476562 57.296875 C 249.828125 57.613281 250.925781 58.511719 252.488281 58.570312 C 253.847656 58.625 254.929688 58.011719 255.34375 57.777344 C 255.816406 57.511719 256.175781 57.226562 256.421875 57.007812 C 256.414062 57.191406 256.40625 57.375 256.398438 57.558594 C 256.402344 57.773438 256.402344 57.992188 256.402344 58.207031 C 256.84375 58.210938 257.289062 58.214844 257.738281 58.210938 C 257.953125 58.210938 258.164062 58.210938 258.375 58.207031 C 258.371094 57.765625 258.367188 57.320312 258.367188 56.875 C 258.375 54.378906 258.382812 51.882812 258.394531 49.386719 Z M 255.480469 55.429688 C 253.945312 57.199219 251.910156 57.078125 250.527344 55.195312 C 249.953125 54.410156 249.675781 53.558594 249.683594 52.59375 C 249.699219 51.144531 250.996094 49.375 252.375 48.933594 C 252.882812 48.769531 253.402344 48.78125 253.894531 48.984375 C 256.09375 49.875 257.519531 53.082031 255.480469 55.429688 Z M 255.480469 55.429688 "/>
<path style=" stroke:none;fill-rule:nonzero;fill:rgb(39.607844%,39.607844%,39.607844%);fill-opacity:1;" d="M 142.390625 54.570312 C 141.917969 55.011719 141.445312 55.453125 140.972656 55.894531 C 140.777344 56.054688 139.503906 57.074219 138.117188 56.714844 C 137.640625 56.59375 137.253906 56.339844 137.125 56.234375 C 136.242188 55.527344 135.628906 54.601562 135.574219 53.242188 L 143.328125 53.242188 C 143.414062 52.894531 143.90625 50.835938 142.671875 49.113281 C 141.234375 47.109375 138.34375 46.785156 136.46875 47.691406 C 133.367188 49.191406 133.019531 54.054688 134.6875 56.503906 C 134.886719 56.789062 135.828125 58.175781 137.546875 58.574219 C 138.511719 58.796875 139.328125 58.617188 139.730469 58.527344 C 141.03125 58.230469 141.882812 57.523438 142.386719 57.097656 C 142.972656 56.597656 143.375 56.101562 143.632812 55.75 C 143.441406 55.527344 143.222656 55.292969 142.964844 55.054688 C 142.769531 54.871094 142.574219 54.710938 142.394531 54.570312 Z M 139.0625 48.839844 C 139.234375 48.855469 140.316406 48.960938 141.019531 49.917969 C 141.527344 50.605469 141.542969 51.335938 141.535156 51.582031 C 139.628906 51.585938 137.726562 51.59375 135.820312 51.597656 C 135.871094 51.285156 136.050781 50.457031 136.765625 49.757812 C 136.96875 49.558594 137.808594 48.738281 139.0625 48.839844 Z M 139.0625 48.839844 "/>
<path style=" stroke:none;fill-rule:nonzero;fill:rgb(39.607844%,39.607844%,39.607844%);fill-opacity:1;" d="M 311.546875 54.570312 C 311.074219 55.011719 310.601562 55.453125 310.128906 55.894531 C 309.933594 56.054688 308.65625 57.074219 307.273438 56.714844 C 306.792969 56.59375 306.410156 56.339844 306.28125 56.234375 C 305.398438 55.527344 304.785156 54.601562 304.730469 53.242188 L 312.480469 53.242188 C 312.570312 52.894531 313.058594 50.835938 311.824219 49.113281 C 310.390625 47.109375 307.5 46.785156 305.621094 47.691406 C 302.519531 49.191406 302.171875 54.054688 303.84375 56.503906 C 304.039062 56.789062 304.984375 58.175781 306.703125 58.574219 C 307.664062 58.796875 308.484375 58.617188 308.882812 58.527344 C 310.183594 58.230469 311.039062 57.523438 311.539062 57.097656 C 312.128906 56.597656 312.53125 56.101562 312.785156 55.75 C 312.597656 55.527344 312.375 55.292969 312.117188 55.054688 C 311.921875 54.871094 311.730469 54.710938 311.546875 54.570312 Z M 308.214844 48.839844 C 308.386719 48.855469 309.472656 48.960938 310.175781 49.917969 C 310.679688 50.605469 310.695312 51.335938 310.691406 51.582031 C 308.785156 51.585938 306.878906 51.59375 304.972656 51.597656 C 305.023438 51.285156 305.207031 50.457031 305.921875 49.757812 C 306.121094 49.558594 306.960938 48.738281 308.214844 48.839844 Z M 308.214844 48.839844 "/>
<path style=" stroke:none;fill-rule:nonzero;fill:rgb(41.960785%,41.176471%,41.568628%);fill-opacity:1;" d="M 282.023438 43.324219 C 282.414062 43.320312 282.808594 43.3125 283.199219 43.308594 C 283.574219 43.300781 283.945312 43.289062 284.320312 43.28125 L 284.320312 47.363281 L 286.335938 47.363281 C 286.34375 47.640625 286.347656 47.925781 286.347656 48.214844 C 286.351562 48.566406 286.34375 48.914062 286.335938 49.25 C 286.023438 49.246094 285.707031 49.242188 285.390625 49.242188 C 285.03125 49.238281 284.675781 49.238281 284.320312 49.242188 C 284.316406 52.234375 284.3125 55.226562 284.308594 58.21875 L 282.023438 58.21875 L 282.023438 49.242188 L 281.335938 49.242188 C 281.332031 48.613281 281.324219 47.988281 281.316406 47.363281 L 282.023438 47.363281 Z M 282.023438 43.324219 "/>
<path style=" stroke:none;fill-rule:nonzero;fill:rgb(39.607844%,38.431373%,39.215687%);fill-opacity:1;" d="M 296.84375 49.386719 C 296.835938 49.058594 296.832031 48.730469 296.824219 48.402344 C 296.824219 48.054688 296.828125 47.703125 296.828125 47.355469 L 295.046875 47.355469 C 295.03125 47.550781 295.015625 47.757812 295.007812 47.972656 C 295 48.171875 294.996094 48.359375 294.996094 48.542969 C 294.859375 48.417969 294.722656 48.292969 294.585938 48.167969 C 294.390625 47.996094 294.109375 47.769531 293.734375 47.5625 C 292.542969 46.914062 291.378906 47 290.894531 47.042969 C 290.644531 47.066406 289.078125 47.273438 287.828125 48.300781 C 285.535156 50.191406 285.117188 54.75 287.925781 57.296875 C 288.277344 57.613281 289.375 58.511719 290.9375 58.570312 C 292.296875 58.625 293.378906 58.011719 293.796875 57.777344 C 294.265625 57.511719 294.625 57.226562 294.871094 57.007812 C 294.863281 57.191406 294.855469 57.375 294.847656 57.558594 C 294.851562 57.773438 294.851562 57.992188 294.851562 58.207031 C 295.296875 58.210938 295.742188 58.214844 296.191406 58.210938 C 296.402344 58.210938 296.613281 58.210938 296.824219 58.207031 C 296.820312 57.765625 296.816406 57.320312 296.816406 56.875 C 296.824219 54.378906 296.832031 51.882812 296.84375 49.386719 Z M 293.933594 55.429688 C 292.394531 57.199219 290.359375 57.078125 288.976562 55.195312 C 288.402344 54.410156 288.125 53.558594 288.132812 52.59375 C 288.148438 51.144531 289.445312 49.375 290.824219 48.933594 C 291.335938 48.769531 291.851562 48.78125 292.34375 48.984375 C 294.542969 49.875 295.972656 53.082031 293.933594 55.429688 Z M 293.933594 55.429688 "/>
<path style=" stroke:none;fill-rule:nonzero;fill:rgb(40.392157%,39.607844%,40.392157%);fill-opacity:1;" d="M 159.453125 45.25 C 159.453125 44.6875 158.996094 44.230469 158.433594 44.230469 C 157.871094 44.230469 157.417969 44.6875 157.417969 45.25 C 157.417969 45.8125 157.871094 46.269531 158.433594 46.269531 C 158.996094 46.269531 159.453125 45.8125 159.453125 45.25 Z M 159.453125 45.25 "/>
<path style=" stroke:none;fill-rule:nonzero;fill:rgb(40.392157%,39.607844%,40.392157%);fill-opacity:1;" d="M 186.015625 59.746094 C 186.132812 60.246094 185.878906 60.664062 185.765625 60.855469 C 185.246094 61.710938 184.238281 61.886719 184.019531 61.921875 C 184.292969 61.527344 184.566406 61.136719 184.835938 60.742188 C 184.769531 60.746094 184.402344 60.746094 184.121094 60.460938 C 183.757812 60.089844 183.882812 59.578125 183.890625 59.546875 C 184.011719 59.078125 184.488281 58.773438 184.945312 58.785156 C 185.527344 58.796875 185.910156 59.316406 186.011719 59.746094 Z M 186.015625 59.746094 "/>
<path style=" stroke:none;fill-rule:nonzero;fill:rgb(40.392157%,39.607844%,40.392157%);fill-opacity:1;" d="M 262.808594 59.746094 C 262.929688 60.246094 262.675781 60.664062 262.5625 60.855469 C 262.042969 61.710938 261.035156 61.886719 260.816406 61.921875 C 261.089844 61.527344 261.359375 61.136719 261.632812 60.742188 C 261.566406 60.746094 261.199219 60.746094 260.917969 60.460938 C 260.554688 60.089844 260.679688 59.578125 260.6875 59.546875 C 260.808594 59.078125 261.285156 58.773438 261.738281 58.785156 C 262.320312 58.796875 262.707031 59.316406 262.808594 59.746094 Z M 262.808594 59.746094 "/>
<path style=" stroke:none;fill-rule:nonzero;fill:rgb(40.392157%,39.607844%,40.392157%);fill-opacity:1;" d="M 191.238281 45.25 C 191.238281 44.6875 190.785156 44.230469 190.222656 44.230469 C 189.660156 44.230469 189.203125 44.6875 189.203125 45.25 C 189.203125 45.8125 189.660156 46.269531 190.222656 46.269531 C 190.785156 46.269531 191.238281 45.8125 191.238281 45.25 Z M 191.238281 45.25 "/>
<path style=" stroke:none;fill-rule:nonzero;fill:rgb(40.392157%,39.607844%,40.392157%);fill-opacity:1;" d="M 268.003906 45.25 C 268.003906 44.6875 267.546875 44.230469 266.988281 44.230469 C 266.425781 44.230469 265.96875 44.6875 265.96875 45.25 C 265.96875 45.8125 266.425781 46.269531 266.988281 46.269531 C 267.546875 46.269531 268.003906 45.8125 268.003906 45.25 Z M 268.003906 45.25 "/>
<path style=" stroke:none;fill-rule:nonzero;fill:rgb(40.392157%,39.607844%,40.392157%);fill-opacity:1;" d="M 272.152344 45.25 C 272.152344 44.6875 271.695312 44.230469 271.132812 44.230469 C 270.570312 44.230469 270.117188 44.6875 270.117188 45.25 C 270.117188 45.8125 270.570312 46.269531 271.132812 46.269531 C 271.695312 46.269531 272.152344 45.8125 272.152344 45.25 Z M 272.152344 45.25 "/>
<path style=" stroke:none;fill-rule:nonzero;fill:rgb(40.392157%,39.607844%,40.392157%);fill-opacity:1;" d="M 218.132812 44.984375 C 217.488281 45.347656 215.984375 46.082031 213.945312 46.046875 C 211.980469 46.011719 210.542969 45.285156 209.90625 44.910156 C 209.910156 44.453125 209.914062 43.992188 209.921875 43.535156 C 210.257812 43.84375 211.730469 45.113281 213.992188 45.125 C 216.320312 45.136719 217.832031 43.800781 218.15625 43.5 C 218.148438 43.996094 218.140625 44.488281 218.132812 44.984375 Z M 218.132812 44.984375 "/>
<path style=" stroke:none;fill-rule:nonzero;fill:rgb(40.392157%,39.607844%,40.392157%);fill-opacity:1;" d="M 241.429688 44.984375 C 240.785156 45.347656 239.28125 46.082031 237.242188 46.046875 C 235.277344 46.011719 233.84375 45.285156 233.203125 44.910156 C 233.207031 44.453125 233.214844 43.992188 233.21875 43.535156 C 233.558594 43.84375 235.03125 45.113281 237.289062 45.125 C 239.621094 45.136719 241.128906 43.800781 241.457031 43.5 C 241.449219 43.996094 241.441406 44.488281 241.429688 44.984375 Z M 241.429688 44.984375 "/>
<path style=" stroke:none;fill-rule:nonzero;fill:rgb(40.392157%,39.607844%,40.392157%);fill-opacity:1;" d="M 258.367188 44.984375 C 257.722656 45.347656 256.21875 46.082031 254.179688 46.046875 C 252.214844 46.011719 250.777344 45.285156 250.140625 44.910156 C 250.144531 44.453125 250.148438 43.992188 250.15625 43.535156 C 250.496094 43.84375 251.964844 45.113281 254.226562 45.125 C 256.554688 45.136719 258.066406 43.800781 258.394531 43.5 C 258.386719 43.996094 258.378906 44.488281 258.367188 44.984375 Z M 258.367188 44.984375 "/>
</g>
</svg>
